<?xml version="1.0" encoding="UTF-8"?>
<!DOCTYPE svg PUBLIC "-//W3C//DTD SVG 1.1//EN" "http://www.w3.org/Graphics/SVG/1.1/DTD/svg11.dtd">
<!-- Creator: CorelDRAW 2017 -->
<svg xmlns="http://www.w3.org/2000/svg" xml:space="preserve" width="62px" height="62px" version="1.1" style="shape-rendering:geometricPrecision; text-rendering:geometricPrecision; image-rendering:optimizeQuality; fill-rule:evenodd; clip-rule:evenodd"
viewBox="0 0 7.54 7.54"
 xmlns:xlink="http://www.w3.org/1999/xlink">
 <defs>
  <style type="text/css">
   <![CDATA[
    .fil2 {fill:none}
    .fil1 {fill:#FEFEFE;fill-rule:nonzero}
    .fil0 {fill:#696B6D;fill-rule:nonzero}
   ]]>
  </style>
 </defs>
 <g id="Layer_x0020_1">
  <metadata id="CorelCorpID_0Corel-Layer"/>
  <g id="_129379601920">
   <path class="fil0" d="M4.2 5.07c-0.61,0 -1.11,-0.5 -1.11,-1.12 0,-0.61 0.5,-1.11 1.11,-1.11 0.62,0 1.12,0.5 1.12,1.11 0,0.62 -0.5,1.12 -1.12,1.12zm-2.02 -0.61l0 -1.02 0.5 0.51 -0.5 0.51zm-0.31 -2.43l0 3.52c0,0.18 0.15,0.33 0.33,0.33l3.4 0c0.18,0 0.33,-0.15 0.33,-0.33l0 -3.52 -4.06 0z"/>
   <path class="fil0" d="M4.2 4.36c-0.22,0 -0.4,-0.18 -0.4,-0.41 0,-0.22 0.18,-0.4 0.4,-0.4 0.23,0 0.41,0.18 0.41,0.4 0,0.23 -0.18,0.41 -0.41,0.41zm0.91 -0.55c-0.03,-0.15 -0.08,-0.28 -0.17,-0.39l-0.25 0.13 -0.08 -0.08 0.13 -0.26c-0.11,-0.08 -0.25,-0.14 -0.39,-0.16l-0.09 0.27 -0.11 0 -0.09 -0.27c-0.14,0.02 -0.28,0.08 -0.39,0.16l0.13 0.26 -0.08 0.08 -0.25 -0.13c-0.09,0.11 -0.14,0.24 -0.17,0.39l0.28 0.08 0 0.12 -0.28 0.08c0.03,0.15 0.08,0.28 0.17,0.4l0.25 -0.14 0.08 0.09 -0.13 0.25c0.11,0.08 0.25,0.14 0.39,0.16l0.09 -0.27 0.11 0 0.09 0.27c0.14,-0.02 0.28,-0.08 0.39,-0.16l-0.13 -0.25 0.08 -0.09 0.25 0.14c0.09,-0.12 0.14,-0.25 0.17,-0.4l-0.28 -0.08 0 -0.12 0.28 -0.08z"/>
  </g>
  <g id="_129379601440">
   <path class="fil1" d="M4.08 4.89c-0.62,0 -1.12,-0.5 -1.12,-1.12 0,-0.61 0.5,-1.11 1.12,-1.11 0.61,0 1.11,0.5 1.11,1.11 0,0.62 -0.5,1.12 -1.11,1.12zm-2.03 -0.61l0 -1.02 0.5 0.51 -0.5 0.51zm-0.31 -2.43l0 3.52c0,0.18 0.15,0.33 0.33,0.33l3.41 0c0.17,0 0.32,-0.15 0.32,-0.33l0 -3.52 -4.06 0z"/>
   <path class="fil1" d="M4.08 4.18c-0.23,0 -0.41,-0.18 -0.41,-0.41 0,-0.22 0.18,-0.4 0.41,-0.4 0.22,0 0.4,0.18 0.4,0.4 0,0.23 -0.18,0.41 -0.4,0.41zm0.9 -0.55c-0.03,-0.15 -0.08,-0.28 -0.17,-0.39l-0.25 0.13 -0.08 -0.08 0.13 -0.26c-0.11,-0.08 -0.25,-0.14 -0.39,-0.16l-0.08 0.27 -0.12 0 -0.09 -0.27c-0.14,0.02 -0.28,0.08 -0.39,0.16l0.13 0.26 -0.08 0.08 -0.25 -0.13c-0.08,0.11 -0.14,0.24 -0.16,0.39l0.27 0.08 0 0.12 -0.27 0.08c0.02,0.15 0.08,0.28 0.16,0.4l0.25 -0.14 0.08 0.09 -0.13 0.25c0.11,0.08 0.25,0.14 0.39,0.16l0.09 -0.27 0.12 0 0.08 0.27c0.14,-0.02 0.28,-0.08 0.39,-0.16l-0.13 -0.25 0.08 -0.09 0.25 0.14c0.09,-0.12 0.14,-0.25 0.17,-0.4l-0.28 -0.08 0 -0.12 0.28 -0.08z"/>
  </g>
  <rect class="fil2" width="7.54" height="7.54"/>
 </g>
</svg>
