<?xml version="1.0" encoding="UTF-8"?>
<!DOCTYPE svg PUBLIC "-//W3C//DTD SVG 1.1//EN" "http://www.w3.org/Graphics/SVG/1.1/DTD/svg11.dtd">
<!-- Creator: CorelDRAW 2017 -->
<svg xmlns="http://www.w3.org/2000/svg" xml:space="preserve" width="62px" height="62px" version="1.1" style="shape-rendering:geometricPrecision; text-rendering:geometricPrecision; image-rendering:optimizeQuality; fill-rule:evenodd; clip-rule:evenodd"
viewBox="0 0 9.96 9.96"
 xmlns:xlink="http://www.w3.org/1999/xlink">
 <defs>
  <style type="text/css">
   <![CDATA[
    .fil2 {fill:none}
    .fil1 {fill:#FEFEFE;fill-rule:nonzero}
    .fil0 {fill:#696B6D;fill-rule:nonzero}
   ]]>
  </style>
 </defs>
 <g id="Layer_x0020_1">
  <metadata id="CorelCorpID_0Corel-Layer"/>
  <g id="_129702852320">
   <path class="fil0" d="M5.84 7.29c-0.22,0 -0.4,-0.18 -0.4,-0.4 0,-0.22 0.18,-0.4 0.4,-0.4 0.22,0 0.4,0.18 0.4,0.4 0,0.22 -0.18,0.4 -0.4,0.4zm-1.61 -0.27l1.47 -1.61 0.27 0.27 -1.47 1.61 -0.27 -0.27zm-0.27 -1.2c0,-0.23 0.18,-0.41 0.41,-0.41 0.22,0 0.4,0.18 0.4,0.41 0,0.22 -0.18,0.4 -0.4,0.4 -0.23,0 -0.41,-0.18 -0.41,-0.4zm-1.4 -1.21l0 2.91c0,0.32 0.25,0.57 0.57,0.57l3.95 0c0.31,0 0.57,-0.25 0.57,-0.57l0 -2.91 -5.09 0z"/>
   <path class="fil0" d="M5.26 3.2l0 0.89 -0.31 0 0 -0.89c-0.2,0.04 -0.3,0.19 -0.3,0.43l0 0.71 0.9 0 0 -0.71c0,-0.25 -0.1,-0.39 -0.29,-0.43z"/>
   <path class="fil0" d="M6.58 3.68c0,-0.81 -0.66,-1.47 -1.47,-1.48 -0.81,0 -1.48,0.65 -1.48,1.47 0,0.24 0.06,0.47 0.16,0.67l0.47 0 0 -0.71c0,-0.21 0.06,-0.37 0.17,-0.5 0.12,-0.13 0.29,-0.21 0.51,-0.23l0 -0.24 0.33 0 0 0.24c0.22,0.02 0.39,0.1 0.5,0.22 0.12,0.13 0.17,0.3 0.17,0.51l0 0.71 0.47 0c0.11,-0.19 0.16,-0.42 0.17,-0.66z"/>
  </g>
  <g id="_129702852960">
   <path class="fil1" d="M5.72 7.12c-0.22,0 -0.4,-0.18 -0.4,-0.4 0,-0.22 0.18,-0.4 0.4,-0.4 0.22,0 0.4,0.18 0.4,0.4 0,0.22 -0.18,0.4 -0.4,0.4zm-1.61 -0.26l1.47 -1.61 0.27 0.27 -1.47 1.6 -0.27 -0.26zm-0.27 -1.21c0,-0.22 0.18,-0.4 0.4,-0.4 0.23,0 0.41,0.18 0.41,0.4 0,0.22 -0.18,0.4 -0.41,0.4 -0.22,0 -0.4,-0.18 -0.4,-0.4zm-1.4 -1.2l0 2.91c0,0.31 0.25,0.57 0.57,0.57l3.94 0c0.32,0 0.58,-0.26 0.58,-0.57l0 -2.91 -5.09 0z"/>
   <path class="fil1" d="M5.14 3.03l0 0.9 -0.31 0 0 -0.89c-0.2,0.04 -0.3,0.18 -0.3,0.43l0 0.71 0.9 0 0 -0.71c0,-0.25 -0.1,-0.39 -0.29,-0.44z"/>
   <path class="fil1" d="M6.45 3.52c0.01,-0.82 -0.65,-1.48 -1.46,-1.48 -0.81,-0.01 -1.48,0.65 -1.48,1.46 0,0.24 0.06,0.47 0.16,0.68l0.47 0 0 -0.71c0,-0.21 0.06,-0.38 0.17,-0.51 0.12,-0.12 0.28,-0.2 0.51,-0.23l0 -0.24 0.33 0 0 0.24c0.22,0.03 0.39,0.1 0.5,0.23 0.11,0.13 0.17,0.3 0.17,0.51l0 0.71 0.47 0c0.1,-0.2 0.16,-0.42 0.16,-0.66z"/>
  </g>
  <rect class="fil2" width="9.96" height="9.96"/>
 </g>
</svg>
