<?xml version="1.0" encoding="UTF-8"?>
<!DOCTYPE svg PUBLIC "-//W3C//DTD SVG 1.1//EN" "http://www.w3.org/Graphics/SVG/1.1/DTD/svg11.dtd">
<!-- Creator: CorelDRAW 2017 -->
<svg xmlns="http://www.w3.org/2000/svg" xml:space="preserve" width="62px" height="62px" version="1.1" style="shape-rendering:geometricPrecision; text-rendering:geometricPrecision; image-rendering:optimizeQuality; fill-rule:evenodd; clip-rule:evenodd"
viewBox="0 0 6.87 6.87"
 xmlns:xlink="http://www.w3.org/1999/xlink">
 <defs>
  <style type="text/css">
   <![CDATA[
    .fil0 {fill:none}
    .fil2 {fill:#FEFEFE;fill-rule:nonzero}
    .fil1 {fill:#696B6D;fill-rule:nonzero}
   ]]>
  </style>
 </defs>
 <g id="Layer_x0020_1">
  <metadata id="CorelCorpID_0Corel-Layer"/>
  <rect class="fil0" width="6.87" height="6.87"/>
 </g>
 <g id="Layer_x0020_1_0">
  <metadata id="CorelCorpID_1Corel-Layer"/>
  <g id="_937671013616">
   <path class="fil1" d="M4.43 3.56c0,0.1 -0.08,0.18 -0.18,0.18l-1.49 0c-0.1,0 -0.18,-0.08 -0.18,-0.18l0 -0.46 1.85 0 0 0.46zm-0.37 0.83c-0.1,0 -0.18,-0.08 -0.18,-0.19 0,-0.1 0.08,-0.18 0.18,-0.18 0.1,0 0.19,0.08 0.19,0.18 0,0.11 -0.09,0.19 -0.19,0.19zm0 0.55c-0.1,0 -0.19,-0.08 -0.19,-0.18 0,-0.1 0.09,-0.19 0.19,-0.19 0.1,0 0.18,0.09 0.18,0.19 0,0.1 -0.08,0.18 -0.18,0.18zm0 0.56c-0.1,0 -0.19,-0.09 -0.19,-0.19 0,-0.1 0.09,-0.18 0.19,-0.18 0.1,0 0.18,0.08 0.18,0.18 0,0.1 -0.08,0.19 -0.18,0.19zm-0.55 -1.11c-0.1,0 -0.19,-0.08 -0.19,-0.19 0,-0.1 0.09,-0.18 0.19,-0.18 0.1,0 0.18,0.08 0.18,0.18 0,0.11 -0.08,0.19 -0.18,0.19zm-0.01 0.55c-0.1,0 -0.18,-0.08 -0.18,-0.18 0,-0.1 0.08,-0.19 0.18,-0.19 0.1,0 0.19,0.09 0.19,0.19 0,0.1 -0.09,0.18 -0.19,0.18zm0 0.56c-0.1,0 -0.18,-0.09 -0.18,-0.19 0,-0.1 0.08,-0.18 0.18,-0.18 0.1,0 0.19,0.08 0.19,0.18 0,0.1 -0.09,0.19 -0.19,0.19zm-0.55 -1.11c-0.1,0 -0.18,-0.08 -0.18,-0.19 0,-0.1 0.08,-0.18 0.18,-0.18 0.11,0 0.19,0.08 0.19,0.18 0,0.11 -0.08,0.19 -0.19,0.19zm0 0.55c-0.1,0 -0.19,-0.08 -0.19,-0.18 0,-0.1 0.09,-0.19 0.19,-0.19 0.1,0 0.18,0.09 0.18,0.19 0,0.1 -0.08,0.18 -0.18,0.18zm0 0.56c-0.1,0 -0.19,-0.09 -0.19,-0.19 0,-0.1 0.09,-0.18 0.19,-0.18 0.1,0 0.18,0.08 0.18,0.18 0,0.1 -0.08,0.19 -0.18,0.19zm1.48 -3.33l0 0.56 -1.85 0 0 -0.56 -0.28 0 0 3.29c0,0.17 0.15,0.31 0.32,0.31l1.76 0c0.18,0 0.32,-0.14 0.32,-0.31l0 -3.29 -0.27 0z"/>
   <polygon class="fil1" points="4.24,1.53 4.06,1.34 3.87,1.53 3.69,1.34 3.5,1.53 3.32,1.34 3.13,1.53 2.95,1.34 2.76,1.53 2.76,2.54 4.24,2.54 "/>
  </g>
  <g id="_937671013424">
   <path class="fil2" d="M4.36 3.44c0,0.1 -0.08,0.18 -0.18,0.18l-1.49 0c-0.1,0 -0.18,-0.08 -0.18,-0.18l0 -0.47 1.85 0 0 0.47zm-0.37 0.83c-0.1,0 -0.18,-0.09 -0.18,-0.19 0,-0.1 0.08,-0.18 0.18,-0.18 0.1,0 0.19,0.08 0.19,0.18 0,0.1 -0.09,0.19 -0.19,0.19zm0 0.55c-0.1,0 -0.19,-0.08 -0.19,-0.18 0,-0.11 0.09,-0.19 0.19,-0.19 0.1,0 0.18,0.08 0.18,0.19 0,0.1 -0.08,0.18 -0.18,0.18zm0 0.55c-0.1,0 -0.19,-0.08 -0.19,-0.18 0,-0.1 0.09,-0.19 0.19,-0.19 0.1,0 0.18,0.09 0.18,0.19 0,0.1 -0.08,0.18 -0.18,0.18zm-0.55 -1.1c-0.1,0 -0.19,-0.09 -0.19,-0.19 0,-0.1 0.09,-0.18 0.19,-0.18 0.1,0 0.18,0.08 0.18,0.18 0,0.1 -0.08,0.19 -0.18,0.19zm-0.01 0.55c-0.1,0 -0.18,-0.08 -0.18,-0.18 0,-0.11 0.08,-0.19 0.18,-0.19 0.11,0 0.19,0.08 0.19,0.19 0,0.1 -0.08,0.18 -0.19,0.18zm0 0.55c-0.1,0 -0.18,-0.08 -0.18,-0.18 0,-0.1 0.08,-0.19 0.18,-0.19 0.11,0 0.19,0.09 0.19,0.19 0,0.1 -0.08,0.18 -0.19,0.18zm-0.55 -1.1c-0.1,0 -0.18,-0.09 -0.18,-0.19 0,-0.1 0.08,-0.18 0.18,-0.18 0.11,0 0.19,0.08 0.19,0.18 0,0.1 -0.08,0.19 -0.19,0.19zm0 0.55c-0.1,0 -0.18,-0.08 -0.18,-0.18 0,-0.11 0.08,-0.19 0.18,-0.19 0.1,0 0.19,0.08 0.19,0.19 0,0.1 -0.09,0.18 -0.19,0.18zm0 0.55c-0.1,0 -0.18,-0.08 -0.18,-0.18 0,-0.1 0.08,-0.19 0.18,-0.19 0.1,0 0.19,0.09 0.19,0.19 0,0.1 -0.09,0.18 -0.19,0.18zm1.48 -3.32l0 0.55 -1.85 0 0 -0.55 -0.28 0 0 3.29c0,0.17 0.15,0.31 0.33,0.31l1.75 0c0.18,0 0.33,-0.14 0.33,-0.31l0 -3.29 -0.28 0z"/>
   <polygon class="fil2" points="4.17,1.4 3.99,1.22 3.8,1.4 3.62,1.22 3.43,1.4 3.25,1.22 3.07,1.4 2.88,1.22 2.7,1.4 2.7,2.42 4.17,2.42 "/>
  </g>
 </g>
</svg>
