<?xml version="1.0" encoding="UTF-8"?>
<!DOCTYPE svg PUBLIC "-//W3C//DTD SVG 1.1//EN" "http://www.w3.org/Graphics/SVG/1.1/DTD/svg11.dtd">
<!-- Creator: CorelDRAW 2017 -->
<svg xmlns="http://www.w3.org/2000/svg" xml:space="preserve" width="62px" height="62px" version="1.1" style="shape-rendering:geometricPrecision; text-rendering:geometricPrecision; image-rendering:optimizeQuality; fill-rule:evenodd; clip-rule:evenodd"
viewBox="0 0 7.02 7.02"
 xmlns:xlink="http://www.w3.org/1999/xlink">
 <defs>
  <style type="text/css">
   <![CDATA[
    .fil2 {fill:none}
    .fil1 {fill:#FEFEFE;fill-rule:nonzero}
    .fil0 {fill:#696B6D;fill-rule:nonzero}
   ]]>
  </style>
 </defs>
 <g id="Layer_x0020_1">
  <metadata id="CorelCorpID_0Corel-Layer"/>
  <g id="_129702849856">
   <path class="fil0" d="M2.92 4.4c0.92,0.92 1.88,1.04 2.31,1.04 0.15,0 0.24,0 0.24,0l0 -0.84 -0.9 -0.32 -0.46 0.44c-0.59,-0.26 -1.15,-0.73 -1.5,-1.5l0.43 -0.47 -0.31 -0.9 -0.85 0c0,0 0,0.09 0,0.24 0,0.44 0.13,1.4 1.04,2.31z"/>
   <polygon class="fil0" points="4.43,2.99 3.87,2.42 4.05,2.23 4.43,2.61 5.19,1.85 5.38,2.04 "/>
  </g>
  <g id="_129702850624">
   <path class="fil1" d="M2.76 4.27c0.92,0.92 1.88,1.04 2.31,1.04 0.15,0 0.24,0 0.24,0l0 -0.85 -0.9 -0.31 -0.47 0.43c-0.59,-0.26 -1.15,-0.73 -1.5,-1.5l0.44 -0.46 -0.32 -0.9 -0.84 0c0,0 0,0.09 0,0.24 0,0.43 0.12,1.39 1.04,2.31z"/>
   <polygon class="fil1" points="4.27,2.85 3.7,2.28 3.89,2.1 4.27,2.47 5.02,1.72 5.21,1.91 "/>
  </g>
  <rect class="fil2" width="7.02" height="7.02"/>
 </g>
</svg>
