<?xml version="1.0" encoding="UTF-8"?>
<!DOCTYPE svg PUBLIC "-//W3C//DTD SVG 1.1//EN" "http://www.w3.org/Graphics/SVG/1.1/DTD/svg11.dtd">
<!-- Creator: CorelDRAW 2017 -->
<svg xmlns="http://www.w3.org/2000/svg" xml:space="preserve" width="62px" height="62px" version="1.1" style="shape-rendering:geometricPrecision; text-rendering:geometricPrecision; image-rendering:optimizeQuality; fill-rule:evenodd; clip-rule:evenodd"
viewBox="0 0 12.29 12.29"
 xmlns:xlink="http://www.w3.org/1999/xlink">
 <defs>
  <style type="text/css">
   <![CDATA[
    .fil2 {fill:none}
    .fil1 {fill:#FEFEFE;fill-rule:nonzero}
    .fil0 {fill:#696B6D;fill-rule:nonzero}
   ]]>
  </style>
 </defs>
 <g id="Layer_x0020_1">
  <metadata id="CorelCorpID_0Corel-Layer"/>
  <g id="_129698409424">
   <path class="fil0" d="M7.95 5.8l0 -0.33 -1.15 -2.98 -3.97 0 0 7.27 1.33 0 0 -6.61 2.13 0 0.75 1.88c0.08,0.21 -0.07,0.44 -0.3,0.44l-2.42 0 0 4.29 1.83 0c-0.37,-0.42 -0.59,-0.98 -0.59,-1.58 0.01,-1.32 1.08,-2.38 2.39,-2.38z"/>
   <path class="fil0" d="M9.06 9.1l-0.51 0 0 -0.95c0,-0.33 -0.13,-0.51 -0.38,-0.56l0 1.15 -0.4 0 0 -1.15c-0.26,0.05 -0.39,0.24 -0.39,0.56l0 0.95 -0.5 0 0 -0.95c0,-0.27 0.07,-0.49 0.22,-0.66 0.15,-0.16 0.37,-0.26 0.65,-0.3l0 -0.31 0.43 0 0 0.31c0.29,0.04 0.51,0.13 0.65,0.3 0.15,0.16 0.23,0.38 0.23,0.66l0 0.95zm-1.09 -2.97c-1.14,-0.01 -2.07,0.91 -2.08,2.05 -0.01,1.14 0.91,2.07 2.05,2.07 1.14,0.01 2.07,-0.91 2.08,-2.05 0,-1.14 -0.91,-2.07 -2.05,-2.07z"/>
  </g>
  <g id="_129698410704">
   <path class="fil1" d="M7.67 5.57l0 -0.33 -1.15 -2.98 -3.97 0 0 7.27 1.32 0 0 -6.61 2.14 0 0.74 1.88c0.09,0.21 -0.07,0.44 -0.29,0.44l-2.42 0 0 4.29 1.82 0c-0.36,-0.42 -0.59,-0.98 -0.58,-1.58 0,-1.32 1.07,-2.38 2.39,-2.38z"/>
   <path class="fil1" d="M8.77 8.87l-0.5 0 0 -0.95c0,-0.33 -0.13,-0.51 -0.39,-0.57l0 1.16 -0.39 0 0 -1.15c-0.26,0.05 -0.39,0.24 -0.39,0.56l0 0.95 -0.51 0 0 -0.95c0,-0.27 0.08,-0.49 0.23,-0.66 0.15,-0.16 0.36,-0.26 0.65,-0.3l0 -0.31 0.43 0 0 0.31c0.29,0.03 0.5,0.13 0.65,0.3 0.15,0.16 0.22,0.38 0.22,0.66l0 0.95zm-1.09 -2.97c-1.14,-0.01 -2.07,0.91 -2.07,2.05 -0.01,1.14 0.91,2.07 2.05,2.07 1.14,0.01 2.07,-0.91 2.08,-2.05 0,-1.14 -0.92,-2.07 -2.06,-2.07z"/>
  </g>
  <rect class="fil2" width="12.29" height="12.29"/>
 </g>
</svg>
