<?xml version="1.0" encoding="UTF-8"?>
<!DOCTYPE svg PUBLIC "-//W3C//DTD SVG 1.1//EN" "http://www.w3.org/Graphics/SVG/1.1/DTD/svg11.dtd">
<!-- Creator: CorelDRAW 2017 -->
<svg xmlns="http://www.w3.org/2000/svg" xml:space="preserve" width="62px" height="62px" version="1.1" style="shape-rendering:geometricPrecision; text-rendering:geometricPrecision; image-rendering:optimizeQuality; fill-rule:evenodd; clip-rule:evenodd"
viewBox="0 0 18.39 18.39"
 xmlns:xlink="http://www.w3.org/1999/xlink">
 <defs>
  <style type="text/css">
   <![CDATA[
    .fil2 {fill:none}
    .fil0 {fill:#696B6D;fill-rule:nonzero}
    .fil1 {fill:white;fill-rule:nonzero}
   ]]>
  </style>
 </defs>
 <g id="Layer_x0020_1">
  <metadata id="CorelCorpID_0Corel-Layer"/>
  <g id="_130942523872">
   <path class="fil0" d="M11.04 11.51l-1.3 -1.3 0.26 -0.26 1.69 0 0 -0.39 0.66 0.65 -1.31 1.3zm0.28 1.19l-1.84 0 0 -1.85 0.38 0 1.18 1.18 0.28 -0.28 0 0.95zm-2.5 1.03l-1.3 -1.3 1.3 -1.3 0.29 0.29 0 1.65 0.38 0 -0.67 0.66zm-1.71 -1.42l-0.12 0.12 0.27 0.27 -0.63 0 0 -1.89 1.68 0 0 0.31 -1.2 1.19zm-0.85 -1.14l-0.94 -0.94 1.3 -1.3 1.3 1.3 -0.21 0.21 -1.45 0 0 0.73zm1.92 -3.43l0 1.84 -0.38 0 -1.18 -1.18 -0.28 0.28 0 -0.94 1.84 0zm0.66 -1.04l1.3 1.3 -1.3 1.31 -0.29 -0.29 0 -1.65 -0.37 0 0.66 -0.67zm2.48 1.04l0 1.84 -1.84 0 0 -0.39 1.19 -1.19 -0.13 -0.13 -0.14 -0.13 0.92 0zm0.37 -0.21l-0.15 -0.16c-0.36,-0.41 -0.58,-0.98 -0.58,-1.69l-4.85 0c-0.87,0 -1.58,0.7 -1.58,1.57l0 5.75c0,0.87 0.71,1.58 1.58,1.58l5.75 0c0.87,0 1.57,-0.71 1.57,-1.58l0 -4.85c-0.67,0 -1.29,-0.21 -1.74,-0.62z"/>
   <path class="fil0" d="M6.63 12.77l0.01 0c0,0 0,-0.01 -0.01,-0.01 -0.01,0 -0.01,0.01 -0.01,0.01 0,0.01 0,0.02 0.01,0.02 0.01,0 0.01,-0.01 0.01,-0.02l-0.01 0z"/>
   <path class="fil0" d="M13.43 6.67l-0.25 0 -0.24 0 0 -1.48 0.24 0 0.25 0 0 1.48zm-0.25 -2.23c-0.82,0 -1.48,0.67 -1.48,1.49 0,0.82 0.66,1.48 1.48,1.48 0.82,0 1.49,-0.66 1.49,-1.48 0,-0.82 -0.67,-1.49 -1.49,-1.49z"/>
  </g>
  <g id="_130942524768">
   <path class="fil1" d="M10.64 11.19l-1.3 -1.3 0.25 -0.26 1.7 0 0 -0.39 0.65 0.65 -1.3 1.3zm0.28 1.19l-1.84 0 0 -1.84 0.38 0 1.18 1.18 0.28 -0.28 0 0.94zm-2.5 1.04l-1.31 -1.31 1.31 -1.3 0.29 0.29 0 1.65 0.37 0 -0.66 0.67zm-1.71 -1.42l-0.12 0.11 0.27 0.27 -0.63 0 0 -1.89 1.67 0 0 0.31 -1.19 1.2zm-0.86 -1.15l-0.94 -0.94 1.3 -1.3 1.31 1.3 -0.22 0.21 -1.45 0 0 0.73zm1.92 -3.43l0 1.84 -0.38 0 -1.18 -1.18 -0.28 0.28 0 -0.94 1.84 0zm0.67 -1.03l1.3 1.3 -1.3 1.3 -0.29 -0.29 0 -1.65 -0.38 0 0.67 -0.66zm2.48 1.03l0 1.84 -1.84 0 0 -0.39 1.18 -1.18 -0.13 -0.13 -0.13 -0.14 0.92 0zm0.37 -0.21l-0.15 -0.16c-0.37,-0.41 -0.59,-0.97 -0.59,-1.69l-4.85 0c-0.87,0 -1.57,0.71 -1.57,1.58l0 5.75c0,0.87 0.7,1.57 1.57,1.57l5.75 0c0.87,0 1.57,-0.7 1.57,-1.57l0 -4.86c-0.67,0 -1.28,-0.21 -1.73,-0.62z"/>
   <path class="fil1" d="M6.23 12.46l0.01 0c0,-0.01 -0.01,-0.02 -0.01,-0.02 -0.01,0 -0.02,0.01 -0.02,0.02 0,0 0.01,0.01 0.02,0.01 0,0 0.01,-0.01 0.01,-0.01l-0.01 0z"/>
   <path class="fil1" d="M13.02 6.35l-0.24 0 -0.25 0 0 -1.48 0.25 0 0.24 0 0 1.48zm-0.24 -2.22c-0.82,0 -1.49,0.66 -1.49,1.48 0,0.82 0.67,1.48 1.49,1.48 0.82,0 1.48,-0.66 1.48,-1.48 0,-0.82 -0.66,-1.48 -1.48,-1.48z"/>
  </g>
  <rect class="fil2" width="18.39" height="18.39"/>
 </g>
</svg>
