<?xml version="1.0" encoding="UTF-8"?>
<!DOCTYPE svg PUBLIC "-//W3C//DTD SVG 1.1//EN" "http://www.w3.org/Graphics/SVG/1.1/DTD/svg11.dtd">
<!-- Creator: CorelDRAW 2017 -->
<svg xmlns="http://www.w3.org/2000/svg" xml:space="preserve" width="62px" height="62px" version="1.1" style="shape-rendering:geometricPrecision; text-rendering:geometricPrecision; image-rendering:optimizeQuality; fill-rule:evenodd; clip-rule:evenodd"
viewBox="0 0 2.98 2.98"
 xmlns:xlink="http://www.w3.org/1999/xlink">
 <defs>
  <style type="text/css">
   <![CDATA[
    .fil2 {fill:none}
    .fil1 {fill:#FEFEFE;fill-rule:nonzero}
    .fil0 {fill:#696B6D;fill-rule:nonzero}
   ]]>
  </style>
 </defs>
 <g id="Layer_x0020_1">
  <metadata id="CorelCorpID_0Corel-Layer"/>
  <g id="_129624397072">
   <path class="fil0" d="M1.54 0.94c0.2,0 0.36,0.16 0.36,0.36 0,0.2 -0.16,0.36 -0.36,0.36 -0.19,0 -0.36,-0.16 -0.36,-0.36 0,-0.2 0.17,-0.36 0.36,-0.36zm0.53 0.72l0 -1.12 -1.04 0 0 1.12 -0.37 0 0.88 0.88 0.89 -0.88 -0.36 0z"/>
   <path class="fil0" d="M1.44 1.3l0 0.17 -0.1 0 0 -0.17c0,-0.05 0.02,-0.09 0.04,-0.13 0.03,-0.03 0.07,-0.04 0.12,-0.05l0 -0.06 0.09 0 0 0.06c0.05,0 0.09,0.02 0.12,0.05 0.02,0.03 0.04,0.08 0.04,0.13l0 0.17 -0.1 0 0 -0.17c0,-0.06 -0.02,-0.1 -0.07,-0.11l0 0.22 -0.07 0 0 -0.22c-0.05,0.01 -0.07,0.05 -0.07,0.11z"/>
  </g>
  <g id="_129624366960">
   <path class="fil1" d="M1.49 0.89c0.2,0 0.36,0.16 0.36,0.36 0,0.2 -0.16,0.36 -0.36,0.36 -0.2,0 -0.36,-0.16 -0.36,-0.36 0,-0.2 0.16,-0.36 0.36,-0.36zm0.52 0.72l0 -1.12 -1.04 0 0 1.12 -0.36 0 0.88 0.88 0.88 -0.88 -0.36 0z"/>
   <path class="fil1" d="M1.38 1.25l0 0.17 -0.1 0 0 -0.17c0,-0.06 0.02,-0.1 0.05,-0.13 0.02,-0.03 0.06,-0.05 0.12,-0.05l0 -0.06 0.08 0 0 0.06c0.05,0 0.09,0.02 0.12,0.05 0.03,0.03 0.04,0.07 0.04,0.13l0 0.17 -0.09 0 0 -0.17c0,-0.06 -0.03,-0.1 -0.07,-0.11l0 0.22 -0.08 0 0 -0.22c-0.05,0.01 -0.07,0.05 -0.07,0.11z"/>
  </g>
  <rect class="fil2" width="2.98" height="2.98"/>
 </g>
</svg>
