<?xml version="1.0" encoding="UTF-8"?>
<!DOCTYPE svg PUBLIC "-//W3C//DTD SVG 1.1//EN" "http://www.w3.org/Graphics/SVG/1.1/DTD/svg11.dtd">
<!-- Creator: CorelDRAW 2017 -->
<svg xmlns="http://www.w3.org/2000/svg" xml:space="preserve" width="62px" height="62px" version="1.1" style="shape-rendering:geometricPrecision; text-rendering:geometricPrecision; image-rendering:optimizeQuality; fill-rule:evenodd; clip-rule:evenodd"
viewBox="0 0 30.23 30.24"
 xmlns:xlink="http://www.w3.org/1999/xlink">
 <defs>
  <style type="text/css">
   <![CDATA[
    .fil2 {fill:none}
    .fil0 {fill:#696B6D;fill-rule:nonzero}
    .fil1 {fill:white;fill-rule:nonzero}
   ]]>
  </style>
 </defs>
 <g id="Layer_x0020_1">
  <metadata id="CorelCorpID_0Corel-Layer"/>
  <g id="_129698398864">
   <g>
    <path class="fil0" d="M17.79 17.95c-1.41,1.13 -3.46,0.91 -4.59,-0.5 -1.13,-1.4 -0.91,-3.45 0.49,-4.58 1.4,-1.13 3.45,-0.91 4.59,0.49 1.13,1.4 0.91,3.45 -0.49,4.59zm-8.21 -3.69l-3.86 3.12 5.98 7.41 3.87 -3.12 4.97 -4.01c-0.15,-0.35 -0.24,-0.73 -0.24,-1.14 0,-1.55 1.26,-2.8 2.81,-2.8 0.61,0 1.19,0.2 1.65,0.53l1 -0.81 -5.98 -7.41 -3.87 3.12 -6.33 5.11z"/>
    <path class="fil0" d="M14.98 16.03l1.01 1.26 -0.67 0.53 -1.01 -1.25c-0.28,-0.35 -0.42,-0.72 -0.4,-1.1 0.02,-0.37 0.2,-0.73 0.54,-1.08l-0.33 -0.41 0.57 -0.45 0.33 0.41c0.41,-0.27 0.8,-0.37 1.17,-0.31 0.36,0.06 0.69,0.27 0.99,0.63l1.01 1.25 -0.67 0.54 -1.01 -1.25c-0.34,-0.43 -0.71,-0.54 -1.1,-0.33l1.23 1.52 -0.52 0.42 -1.23 -1.52c-0.28,0.35 -0.25,0.73 0.09,1.14z"/>
   </g>
   <path class="fil0" d="M23.09 14.92c-0.9,0 -1.63,0.73 -1.63,1.63 0,0.89 0.73,1.62 1.63,1.62 0.9,0 1.62,-0.73 1.62,-1.62 0,-0.9 -0.72,-1.63 -1.62,-1.63z"/>
   <path class="fil0" d="M21.06 19.39c-0.9,0 -1.63,0.73 -1.63,1.63 0,0.89 0.73,1.62 1.63,1.62 0.89,0 1.62,-0.73 1.62,-1.62 0,-0.9 -0.73,-1.63 -1.62,-1.63z"/>
  </g>
  <g id="_129698401552">
   <g>
    <path class="fil1" d="M17.16 17.65c-1.4,1.13 -3.45,0.92 -4.58,-0.49 -1.14,-1.4 -0.92,-3.45 0.49,-4.58 1.4,-1.14 3.45,-0.92 4.58,0.49 1.13,1.4 0.92,3.45 -0.49,4.58zm-8.2 -3.69l-3.86 3.12 5.98 7.42 3.87 -3.12 4.97 -4.01c-0.16,-0.35 -0.24,-0.74 -0.24,-1.14 0,-1.55 1.26,-2.81 2.81,-2.81 0.61,0 1.18,0.2 1.65,0.54l1 -0.81 -5.98 -7.41 -3.87 3.12 -6.33 5.1z"/>
    <path class="fil1" d="M14.35 15.74l1.01 1.25 -0.66 0.54 -1.01 -1.25c-0.29,-0.36 -0.42,-0.72 -0.4,-1.1 0.02,-0.37 0.2,-0.73 0.54,-1.08l-0.33 -0.41 0.56 -0.46 0.34 0.41c0.4,-0.26 0.79,-0.36 1.16,-0.3 0.37,0.06 0.7,0.27 0.99,0.63l1.01 1.25 -0.66 0.54 -1.01 -1.26c-0.34,-0.42 -0.71,-0.53 -1.1,-0.32l1.23 1.52 -0.53 0.42 -1.22 -1.52c-0.28,0.35 -0.25,0.73 0.08,1.14z"/>
   </g>
   <path class="fil1" d="M22.47 14.63c-0.9,0 -1.63,0.73 -1.63,1.62 0,0.9 0.73,1.63 1.63,1.63 0.89,0 1.62,-0.73 1.62,-1.63 0,-0.89 -0.73,-1.62 -1.62,-1.62z"/>
   <path class="fil1" d="M20.43 19.1c-0.89,0 -1.62,0.73 -1.62,1.62 0,0.9 0.73,1.63 1.62,1.63 0.9,0 1.63,-0.73 1.63,-1.63 0,-0.89 -0.73,-1.62 -1.63,-1.62z"/>
  </g>
  <rect class="fil2" width="30.23" height="30.24"/>
 </g>
</svg>
