<?xml version="1.0" encoding="UTF-8"?>
<!DOCTYPE svg PUBLIC "-//W3C//DTD SVG 1.1//EN" "http://www.w3.org/Graphics/SVG/1.1/DTD/svg11.dtd">
<!-- Creator: CorelDRAW 2017 -->
<svg xmlns="http://www.w3.org/2000/svg" xml:space="preserve" width="62px" height="62px" version="1.1" style="shape-rendering:geometricPrecision; text-rendering:geometricPrecision; image-rendering:optimizeQuality; fill-rule:evenodd; clip-rule:evenodd"
viewBox="0 0 4.37 4.37"
 xmlns:xlink="http://www.w3.org/1999/xlink">
 <defs>
  <style type="text/css">
   <![CDATA[
    .fil2 {fill:none}
    .fil1 {fill:#FEFEFE;fill-rule:nonzero}
    .fil0 {fill:#696B6D;fill-rule:nonzero}
   ]]>
  </style>
 </defs>
 <g id="Layer_x0020_1">
  <metadata id="CorelCorpID_0Corel-Layer"/>
  <g id="_129444420560">
   <path class="fil0" d="M1.93 2.07c0.09,0 0.17,0.08 0.17,0.17 0,0.1 -0.08,0.18 -0.17,0.18 -0.1,0 -0.18,-0.08 -0.18,-0.18 0,-0.09 0.08,-0.17 0.18,-0.17zm0.7 0.11l-0.65 0.71 -0.11 -0.12 0.64 -0.7 0.12 0.11zm0.12 0.53c0,0.1 -0.08,0.18 -0.18,0.18 -0.1,0 -0.17,-0.08 -0.17,-0.18 0,-0.09 0.07,-0.17 0.17,-0.17 0.1,0 0.18,0.08 0.18,0.17zm-1.73 0.3c0,0.11 0.09,0.2 0.2,0.2l2.06 0c0.11,0 0.2,-0.09 0.2,-0.2l0 -1.27 -2.46 0 0 1.27z"/>
   <polygon class="fil0" points="0.9,1.63 3.6,1.63 3.6,1.33 0.9,1.33 "/>
  </g>
  <g id="_129444422608">
   <path class="fil1" d="M1.86 1.98c0.1,0 0.18,0.08 0.18,0.18 0,0.09 -0.08,0.17 -0.18,0.17 -0.1,0 -0.17,-0.08 -0.17,-0.17 0,-0.1 0.07,-0.18 0.17,-0.18zm0.71 0.12l-0.65 0.7 -0.12 -0.12 0.65 -0.7 0.12 0.12zm0.11 0.52c0,0.1 -0.08,0.18 -0.17,0.18 -0.1,0 -0.18,-0.08 -0.18,-0.18 0,-0.09 0.08,-0.17 0.18,-0.17 0.09,0 0.17,0.08 0.17,0.17zm-1.73 0.3c0,0.11 0.09,0.2 0.21,0.2l2.05 0c0.12,0 0.21,-0.09 0.21,-0.2l0 -1.26 -2.47 0 0 1.26z"/>
   <polygon class="fil1" points="0.83,1.54 3.53,1.54 3.53,1.24 0.83,1.24 "/>
  </g>
  <rect class="fil2" width="4.37" height="4.37"/>
 </g>
</svg>
