<?xml version="1.0" encoding="UTF-8"?>
<!DOCTYPE svg PUBLIC "-//W3C//DTD SVG 1.1//EN" "http://www.w3.org/Graphics/SVG/1.1/DTD/svg11.dtd">
<!-- Creator: CorelDRAW 2017 -->
<svg xmlns="http://www.w3.org/2000/svg" xml:space="preserve" width="62px" height="62px" version="1.1" style="shape-rendering:geometricPrecision; text-rendering:geometricPrecision; image-rendering:optimizeQuality; fill-rule:evenodd; clip-rule:evenodd"
viewBox="0 0 2.23 2.23"
 xmlns:xlink="http://www.w3.org/1999/xlink">
 <defs>
  <style type="text/css">
   <![CDATA[
    .fil2 {fill:none}
    .fil1 {fill:#FEFEFE;fill-rule:nonzero}
    .fil0 {fill:#696B6D;fill-rule:nonzero}
   ]]>
  </style>
 </defs>
 <g id="Layer_x0020_1">
  <metadata id="CorelCorpID_0Corel-Layer"/>
  <g id="_129698416784">
   <path class="fil0" d="M1.14 0.98c-0.07,0.07 -0.17,0.11 -0.21,0.11 -0.1,-0.01 -0.13,-0.09 -0.13,-0.09l0.1 -0.1 0.17 -0.17 -0.36 0 -0.07 -0.06 -0.21 0.34c0,0 0.2,0.16 0.2,0.16l0.08 -0.08c0,0 0.04,0 0.08,0.03 0.04,0.02 0.06,0.07 0.07,0.11 0.06,0.05 0.11,0.09 0.15,0.13 0.04,0.04 0.07,0.07 0.09,0.1 0.01,0.02 0.02,0.04 0.02,0.06 0,0.01 -0.01,0.02 -0.01,0.04 0.03,0.02 0.09,0.05 0.15,0.01 0.04,-0.03 0.19,-0.14 0.19,-0.14 0.11,0.03 0.16,-0.06 0.16,-0.06l-0.47 -0.39z"/>
   <path class="fil0" d="M1.05 1.53c0,0 0.01,-0.01 0.01,-0.01 0,-0.01 -0.01,-0.02 -0.01,-0.03 -0.01,-0.02 -0.03,-0.03 -0.05,-0.05 -0.04,-0.05 -0.2,-0.18 -0.2,-0.18 0,0 0,-0.08 -0.07,-0.11l-0.12 0.14 0.37 0.31c0,0 0.07,-0.06 0.07,-0.07z"/>
   <path class="fil0" d="M1.63 0.71l-0.15 0.09 -0.33 -0.07 -0.27 0.28c0.02,0.03 0.09,0.01 0.12,-0.01 0.03,-0.01 0.13,-0.1 0.13,-0.1l0.47 0.38 0.25 -0.2 -0.22 -0.37z"/>
  </g>
  <g id="_129698417456">
   <path class="fil1" d="M1.11 0.96c-0.07,0.07 -0.16,0.11 -0.21,0.11 -0.1,-0.01 -0.13,-0.09 -0.13,-0.09l0.1 -0.1 0.17 -0.17 -0.36 0 -0.07 -0.06 -0.21 0.34c0.01,0 0.2,0.16 0.2,0.16l0.08 -0.08c0,0 0.05,0 0.09,0.03 0.03,0.02 0.05,0.07 0.06,0.11 0.06,0.05 0.11,0.09 0.15,0.13 0.04,0.04 0.07,0.07 0.09,0.1 0.01,0.02 0.02,0.04 0.02,0.06 0,0.01 0,0.03 -0.01,0.04 0.03,0.02 0.09,0.05 0.16,0.01 0.04,-0.03 0.18,-0.14 0.18,-0.14 0.11,0.03 0.17,-0.06 0.17,-0.06l-0.48 -0.39z"/>
   <path class="fil1" d="M1.02 1.51c0.01,0 0.01,-0.01 0.01,-0.01 0,-0.01 0,-0.02 -0.01,-0.03 -0.01,-0.02 -0.02,-0.03 -0.04,-0.05 -0.04,-0.04 -0.2,-0.17 -0.2,-0.17 0,0 -0.01,-0.09 -0.08,-0.12l-0.12 0.14 0.37 0.31c0,0 0.07,-0.06 0.07,-0.07z"/>
   <path class="fil1" d="M1.6 0.69l-0.15 0.09 -0.32 -0.07 -0.28 0.28c0.03,0.03 0.09,0.01 0.12,0 0.03,-0.02 0.14,-0.11 0.14,-0.11l0.46 0.38 0.25 -0.2 -0.22 -0.37z"/>
  </g>
  <rect class="fil2" width="2.23" height="2.23"/>
 </g>
</svg>
