<?xml version="1.0" encoding="UTF-8"?>
<!DOCTYPE svg PUBLIC "-//W3C//DTD SVG 1.1//EN" "http://www.w3.org/Graphics/SVG/1.1/DTD/svg11.dtd">
<!-- Creator: CorelDRAW 2017 -->
<svg xmlns="http://www.w3.org/2000/svg" xml:space="preserve" width="62px" height="62px" version="1.1" style="shape-rendering:geometricPrecision; text-rendering:geometricPrecision; image-rendering:optimizeQuality; fill-rule:evenodd; clip-rule:evenodd"
viewBox="0 0 3.57 3.57"
 xmlns:xlink="http://www.w3.org/1999/xlink">
 <defs>
  <style type="text/css">
   <![CDATA[
    .fil2 {fill:none}
    .fil1 {fill:#FEFEFE;fill-rule:nonzero}
    .fil0 {fill:#696B6D;fill-rule:nonzero}
   ]]>
  </style>
 </defs>
 <g id="Layer_x0020_1">
  <metadata id="CorelCorpID_0Corel-Layer"/>
  <g id="_129692826048">
   <path class="fil0" d="M2.69 2.59l-1.68 0c-0.09,0 -0.17,-0.08 -0.17,-0.17l0 -1.03 2.02 0 0 1.03c0,0.09 -0.08,0.17 -0.17,0.17z"/>
   <polygon class="fil0" points="2.95,1.29 0.75,1.29 0.75,1.05 2.95,1.05 "/>
  </g>
  <g id="_129692827008">
   <path class="fil1" d="M2.62 2.55l-1.68 0c-0.09,0 -0.16,-0.07 -0.16,-0.17l0 -1.03 2.01 0 0 1.03c0,0.1 -0.07,0.17 -0.17,0.17z"/>
   <polygon class="fil1" points="2.89,1.26 0.68,1.26 0.68,1.02 2.89,1.02 "/>
  </g>
  <rect class="fil2" width="3.57" height="3.57"/>
 </g>
</svg>
