<?xml version="1.0" encoding="UTF-8"?>
<!DOCTYPE svg PUBLIC "-//W3C//DTD SVG 1.1//EN" "http://www.w3.org/Graphics/SVG/1.1/DTD/svg11.dtd">
<!-- Creator: CorelDRAW 2017 -->
<svg xmlns="http://www.w3.org/2000/svg" xml:space="preserve" width="62px" height="62px" version="1.1" style="shape-rendering:geometricPrecision; text-rendering:geometricPrecision; image-rendering:optimizeQuality; fill-rule:evenodd; clip-rule:evenodd"
viewBox="0 0 2.01 2.01"
 xmlns:xlink="http://www.w3.org/1999/xlink">
 <defs>
  <style type="text/css">
   <![CDATA[
    .fil2 {fill:none}
    .fil1 {fill:#FEFEFE;fill-rule:nonzero}
    .fil0 {fill:#696B6D;fill-rule:nonzero}
   ]]>
  </style>
 </defs>
 <g id="Layer_x0020_1">
  <metadata id="CorelCorpID_0Corel-Layer"/>
  <g id="_129383369920">
   <path class="fil0" d="M0.68 1.46c0,0.05 0.04,0.09 0.08,0.09l0.08 0 0 -1.06 -0.16 0 0 0.97z"/>
   <path class="fil0" d="M0.46 1.46c0,0.05 0.04,0.09 0.09,0.09l0.07 0 0 -1.06 -0.16 0 0 0.97z"/>
   <path class="fil0" d="M1.51 1.03l-0.51 0 0 -0.05 0.51 0 0 0.05zm0 0.14l-0.51 0 0 -0.05 0.51 0 0 0.05zm-0.13 0.24c-0.05,0 -0.08,-0.03 -0.08,-0.08 0,-0.04 0.03,-0.08 0.08,-0.08 0.05,0 0.08,0.04 0.08,0.08 0,0.05 -0.03,0.08 -0.08,0.08zm-0.16 -0.11l-0.22 0 0 -0.05 0.22 0 0 0.05zm-0.22 -0.59c0,-0.02 0.01,-0.05 0.02,-0.06 0.02,-0.02 0.04,-0.03 0.07,-0.03l0 -0.04 0.04 0 0 0.04c0.03,0 0.05,0.01 0.07,0.03 0.01,0.01 0.02,0.04 0.02,0.06l0 0.1 -0.05 0 0 -0.1c0,-0.03 -0.01,-0.05 -0.04,-0.05l0 0.11 -0.04 0 0 -0.11c-0.03,0 -0.04,0.02 -0.04,0.05l0 0.1 -0.05 0 0 -0.1zm0.38 -0.22l-0.49 0 0 0.97c0,0.05 0.04,0.09 0.09,0.09l0.64 0 0 -1.06 -0.24 0z"/>
  </g>
  <g id="_129383371168">
   <path class="fil1" d="M0.64 1.44c0,0.05 0.04,0.09 0.09,0.09l0.07 0 0 -1.05 -0.16 0 0 0.96z"/>
   <path class="fil1" d="M0.42 1.44c0,0.05 0.04,0.09 0.09,0.09l0.08 0 0 -1.05 -0.17 0 0 0.96z"/>
   <path class="fil1" d="M1.48 1.02l-0.52 0 0 -0.06 0.52 0 0 0.06zm0 0.13l-0.52 0 0 -0.05 0.52 0 0 0.05zm-0.14 0.25c-0.04,0 -0.08,-0.04 -0.08,-0.08 0,-0.05 0.04,-0.09 0.08,-0.09 0.05,0 0.09,0.04 0.09,0.09 0,0.04 -0.04,0.08 -0.09,0.08zm-0.16 -0.11l-0.22 0 0 -0.06 0.22 0 0 0.06zm-0.22 -0.59c0,-0.03 0.01,-0.05 0.02,-0.07 0.02,-0.02 0.04,-0.03 0.07,-0.03l0 -0.03 0.04 0 0 0.03c0.03,0 0.06,0.01 0.07,0.03 0.02,0.02 0.02,0.04 0.02,0.07l0 0.09 -0.05 0 0 -0.09c0,-0.04 -0.01,-0.06 -0.04,-0.06l0 0.12 -0.04 0 0 -0.12c-0.02,0 -0.04,0.02 -0.04,0.06l0 0.09 -0.05 0 0 -0.09zm0.38 -0.22l-0.48 0 0 0.96c0,0.05 0.04,0.09 0.08,0.09l0.65 0 0 -1.05 -0.25 0z"/>
  </g>
  <rect class="fil2" width="2.01" height="2.01"/>
 </g>
</svg>
