<?xml version="1.0" encoding="UTF-8"?>
<!DOCTYPE svg PUBLIC "-//W3C//DTD SVG 1.1//EN" "http://www.w3.org/Graphics/SVG/1.1/DTD/svg11.dtd">
<!-- Creator: CorelDRAW 2017 -->
<svg xmlns="http://www.w3.org/2000/svg" xml:space="preserve" width="62px" height="62px" version="1.1" style="shape-rendering:geometricPrecision; text-rendering:geometricPrecision; image-rendering:optimizeQuality; fill-rule:evenodd; clip-rule:evenodd"
viewBox="0 0 100.86 100.86"
 xmlns:xlink="http://www.w3.org/1999/xlink">
 <defs>
  <style type="text/css">
   <![CDATA[
    .fil2 {fill:none}
    .fil0 {fill:#696B6D;fill-rule:nonzero}
    .fil1 {fill:white;fill-rule:nonzero}
   ]]>
  </style>
 </defs>
 <g id="Layer_x0020_1">
  <metadata id="CorelCorpID_0Corel-Layer"/>
  <g id="_129698369040">
   <path class="fil0" d="M61.64 67.5l-10.58 -10.57c-0.37,0.14 -0.78,0.23 -1.2,0.23 -1.87,0 -3.39,-1.52 -3.39,-3.39 0,-1.42 0.88,-2.63 2.12,-3.14l0 -14.64 2.62 0 0 14.68c1.2,0.52 2.04,1.71 2.04,3.1 0,0.48 -0.11,0.94 -0.29,1.36l10.53 10.52 -1.85 1.85zm-6.36 -31.35c0,-2.59 0.74,-4.99 1.99,-7.05 -2.35,-0.7 -4.83,-1.09 -7.41,-1.09 -14.23,0 -25.76,11.54 -25.76,25.76 0,14.23 11.53,25.76 25.76,25.76 14.22,0 25.76,-11.53 25.76,-25.76 0,-1.91 -0.22,-3.77 -0.62,-5.56 -1.85,0.95 -3.94,1.49 -6.16,1.49 -7.49,0 -13.56,-6.06 -13.56,-13.55z"/>
   <path class="fil0" d="M74.81 41.25l-2.77 0 0 -5.22c0,-1.76 -0.71,-2.79 -2.11,-3.08l0 6.35 -2.18 0 0 -6.33c-1.41,0.3 -2.11,1.32 -2.11,3.06l0 5.22 -2.77 0 0 -5.22c0,-1.49 0.41,-2.68 1.22,-3.59 0.81,-0.9 2,-1.45 3.56,-1.63l0 -1.71 2.37 0 0 1.71c1.56,0.17 2.75,0.71 3.57,1.61 0.81,0.9 1.22,2.1 1.22,3.61l0 5.22zm-5.97 -15.95c-3.73,0 -7.01,1.88 -8.96,4.74 -1.19,1.74 -1.89,3.84 -1.89,6.11 0,5.99 4.86,10.84 10.85,10.84 1.98,0 3.82,-0.53 5.42,-1.46 3.24,-1.88 5.42,-5.37 5.42,-9.38 0,-5.99 -4.85,-10.85 -10.84,-10.85z"/>
  </g>
  <g id="_129698369392">
   <path class="fil1" d="M60.18 65.52l-10.58 -10.58c-0.37,0.15 -0.78,0.24 -1.2,0.24 -1.88,0 -3.39,-1.52 -3.39,-3.39 0,-1.43 0.88,-2.64 2.12,-3.14l0 -14.64 2.62 0 0 14.67c1.2,0.52 2.04,1.71 2.04,3.11 0,0.48 -0.11,0.94 -0.29,1.35l10.53 10.53 -1.85 1.85zm-6.36 -31.36c0,-2.58 0.73,-4.99 1.99,-7.04 -2.35,-0.71 -4.84,-1.09 -7.41,-1.09 -14.23,0 -25.76,11.53 -25.76,25.76 0,14.22 11.53,25.75 25.76,25.75 14.22,0 25.75,-11.53 25.75,-25.75 0,-1.91 -0.21,-3.77 -0.61,-5.56 -1.85,0.94 -3.94,1.49 -6.16,1.49 -7.49,0 -13.56,-6.07 -13.56,-13.56z"/>
   <path class="fil1" d="M73.34 39.26l-2.76 0 0 -5.22c0,-1.76 -0.71,-2.78 -2.11,-3.07l0 6.35 -2.19 0 0 -6.33c-1.4,0.29 -2.1,1.31 -2.1,3.05l0 5.22 -2.77 0 0 -5.22c0,-1.48 0.4,-2.67 1.22,-3.58 0.81,-0.91 2,-1.45 3.56,-1.63l0 -1.71 2.37 0 0 1.71c1.56,0.17 2.75,0.7 3.56,1.61 0.82,0.9 1.22,2.1 1.22,3.6l0 5.22zm-5.96 -15.94c-3.73,0 -7.01,1.87 -8.96,4.73 -1.19,1.74 -1.89,3.85 -1.89,6.11 0,5.99 4.86,10.85 10.85,10.85 1.97,0 3.82,-0.54 5.42,-1.47 3.24,-1.87 5.42,-5.37 5.42,-9.38 0,-5.99 -4.85,-10.84 -10.84,-10.84z"/>
  </g>
  <rect class="fil2" width="100.86" height="100.86"/>
 </g>
</svg>
