<?xml version="1.0" encoding="UTF-8"?>
<!DOCTYPE svg PUBLIC "-//W3C//DTD SVG 1.1//EN" "http://www.w3.org/Graphics/SVG/1.1/DTD/svg11.dtd">
<!-- Creator: CorelDRAW 2017 -->
<svg xmlns="http://www.w3.org/2000/svg" xml:space="preserve" width="62px" height="62px" version="1.1" style="shape-rendering:geometricPrecision; text-rendering:geometricPrecision; image-rendering:optimizeQuality; fill-rule:evenodd; clip-rule:evenodd"
viewBox="0 0 5.37 5.37"
 xmlns:xlink="http://www.w3.org/1999/xlink">
 <defs>
  <style type="text/css">
   <![CDATA[
    .fil2 {fill:none}
    .fil1 {fill:#FEFEFE;fill-rule:nonzero}
    .fil0 {fill:#696B6D;fill-rule:nonzero}
   ]]>
  </style>
 </defs>
 <g id="Layer_x0020_1">
  <metadata id="CorelCorpID_0Corel-Layer"/>
  <g id="_129698373264">
   <path class="fil0" d="M4.13 3.08l-2.24 0 0.58 -0.72c0.15,-0.18 0.07,-0.43 -0.07,-0.5l-1.52 1.49 0 0.96 1.6 0c0.49,-0.22 0.78,-0.79 0.78,-0.79l1.23 -0.11c0,-0.16 -0.11,-0.33 -0.36,-0.33z"/>
   <path class="fil0" d="M4.07 2.39l-0.22 0 0 -0.42c0,-0.14 -0.06,-0.22 -0.17,-0.24l0 0.51 -0.17 0 0 -0.51c-0.12,0.02 -0.17,0.11 -0.17,0.24l0 0.42 -0.22 0 0 -0.42c0,-0.11 0.03,-0.21 0.09,-0.28 0.07,-0.07 0.16,-0.12 0.29,-0.13l0 -0.14 0.19 0 0 0.14c0.12,0.01 0.22,0.06 0.28,0.13 0.07,0.07 0.1,0.16 0.1,0.28l0 0.42zm-0.48 -1.33c-0.5,0 -0.9,0.4 -0.9,0.9 -0.01,0.5 0.39,0.9 0.89,0.91 0.5,0 0.91,-0.4 0.91,-0.9 0,-0.5 -0.4,-0.91 -0.9,-0.91z"/>
  </g>
  <g id="_129698373840">
   <path class="fil1" d="M4.08 2.98l-2.24 0 0.58 -0.72c0.15,-0.18 0.07,-0.43 -0.08,-0.51l-1.51 1.5 0 0.96 1.59 0c0.5,-0.22 0.79,-0.79 0.79,-0.79l1.23 -0.11c0,-0.16 -0.11,-0.33 -0.36,-0.33z"/>
   <path class="fil1" d="M4.02 2.29l-0.22 0 0 -0.42c0,-0.14 -0.06,-0.22 -0.17,-0.24l0 0.51 -0.18 0 0 -0.51c-0.11,0.02 -0.16,0.11 -0.16,0.24l0 0.42 -0.22 0 0 -0.42c0,-0.11 0.03,-0.21 0.09,-0.28 0.07,-0.07 0.16,-0.12 0.29,-0.13l0 -0.14 0.19 0 0 0.14c0.12,0.01 0.22,0.05 0.28,0.13 0.07,0.07 0.1,0.16 0.1,0.28l0 0.42zm-0.48 -1.33c-0.5,0 -0.9,0.4 -0.91,0.9 0,0.5 0.4,0.9 0.9,0.91 0.5,0 0.91,-0.4 0.91,-0.9 0,-0.5 -0.4,-0.91 -0.9,-0.91z"/>
  </g>
  <rect class="fil2" width="5.37" height="5.37"/>
 </g>
</svg>
